<?xml version="1.0" encoding="utf-8" standalone="no"?>
<!DOCTYPE svg PUBLIC "-//W3C//DTD SVG 1.1//EN"
  "http://www.w3.org/Graphics/SVG/1.1/DTD/svg11.dtd">
<svg xmlns:xlink="http://www.w3.org/1999/xlink" width="295.2pt" height="256.991882pt" viewBox="0 0 295.2 256.991882" xmlns="http://www.w3.org/2000/svg" version="1.1">
 <metadata>
  <rdf:RDF xmlns:dc="http://purl.org/dc/elements/1.1/" xmlns:cc="http://creativecommons.org/ns#" xmlns:rdf="http://www.w3.org/1999/02/22-rdf-syntax-ns#">
   <cc:Work>
    <dc:type rdf:resource="http://purl.org/dc/dcmitype/StillImage"/>
    <dc:date>2026-06-25T13:28:01.056209</dc:date>
    <dc:format>image/svg+xml</dc:format>
    <dc:creator>
     <cc:Agent>
      <dc:title>Matplotlib v3.9.4, https://matplotlib.org/</dc:title>
     </cc:Agent>
    </dc:creator>
   </cc:Work>
  </rdf:RDF>
 </metadata>
 <defs>
  <style type="text/css">*{stroke-linejoin: round; stroke-linecap: butt}</style>
 </defs>
 <g id="figure_1">
  <g id="patch_1">
   <path d="M 0 256.991882 
L 295.2 256.991882 
L 295.2 0 
L 0 0 
z
" style="fill: #ffffff"/>
  </g>
  <g id="axes_1">
   <g id="patch_2">
    <path d="M 3.6 253.391882 
L 291.6 253.391882 
L 291.6 3.6 
L 3.6 3.6 
z
" style="fill: #ffffff"/>
   </g>
   <g id="matplotlib.axis_1"/>
   <g id="matplotlib.axis_2"/>
   <g id="line2d_1">
    <path d="M 147.6 243.079373 
L 13.913791 109.393164 
" clip-path="url(#p8448bad7fa)" style="fill: none; stroke: #000000; stroke-width: 2; stroke-linecap: square"/>
   </g>
   <g id="line2d_2">
    <path d="M 147.6 243.079373 
L 281.286209 109.393164 
" clip-path="url(#p8448bad7fa)" style="fill: none; stroke: #000000; stroke-width: 2; stroke-linecap: square"/>
   </g>
   <g id="line2d_3">
    <path d="M 109.114207 204.59358 
L 109.729666 203.98781 
L 110.354658 203.391882 
L 110.989026 202.805944 
L 111.632611 202.230145 
L 112.285251 201.664629 
L 112.946781 201.10954 
L 113.617035 200.565016 
L 114.295843 200.031195 
L 114.983036 199.508211 
L 115.67844 198.996196 
L 116.381881 198.495278 
L 117.09318 198.005585 
L 117.812159 197.527238 
L 118.538637 197.060359 
L 119.272431 196.605065 
L 120.013356 196.161471 
L 120.761226 195.729687 
L 121.515853 195.309824 
L 122.277046 194.901987 
L 123.044614 194.506278 
L 123.818364 194.122797 
L 124.598101 193.751641 
L 125.383628 193.392903 
L 126.174748 193.046673 
L 126.971262 192.713038 
L 127.772969 192.392083 
L 128.579668 192.083888 
L 129.391154 191.788531 
L 130.207225 191.506087 
L 131.027674 191.236625 
L 131.852295 190.980215 
L 132.680881 190.73692 
L 133.513222 190.506802 
L 134.34911 190.28992 
L 135.188333 190.086326 
L 136.030681 189.896073 
L 136.875942 189.719209 
L 137.723902 189.555778 
L 138.574349 189.405822 
L 139.427067 189.269377 
L 140.281844 189.146479 
L 141.138462 189.037158 
L 141.996707 188.941442 
L 142.856363 188.859355 
L 143.717213 188.790917 
L 144.57904 188.736146 
L 145.441628 188.695056 
L 146.30476 188.667657 
L 147.168217 188.653956 
L 148.031783 188.653956 
L 148.89524 188.667657 
L 149.758372 188.695056 
L 150.62096 188.736146 
L 151.482787 188.790917 
L 152.343637 188.859355 
L 153.203293 188.941442 
L 154.061538 189.037158 
L 154.918156 189.146479 
L 155.772933 189.269377 
L 156.625651 189.405822 
L 157.476098 189.555778 
L 158.324058 189.719209 
L 159.169319 189.896073 
L 160.011667 190.086326 
L 160.85089 190.28992 
L 161.686778 190.506802 
L 162.519119 190.73692 
L 163.347705 190.980215 
L 164.172326 191.236625 
L 164.992775 191.506087 
L 165.808846 191.788531 
L 166.620332 192.083888 
L 167.427031 192.392083 
L 168.228738 192.713038 
L 169.025252 193.046673 
L 169.816372 193.392903 
L 170.601899 193.751641 
L 171.381636 194.122797 
L 172.155386 194.506278 
L 172.922954 194.901987 
L 173.684147 195.309824 
L 174.438774 195.729687 
L 175.186644 196.161471 
L 175.927569 196.605065 
L 176.661363 197.060359 
L 177.387841 197.527238 
L 178.10682 198.005585 
L 178.818119 198.495278 
L 179.52156 198.996196 
L 180.216964 199.508211 
L 180.904157 200.031195 
L 181.582965 200.565016 
L 182.253219 201.10954 
L 182.914749 201.664629 
L 183.567389 202.230145 
L 184.210974 202.805944 
L 184.845342 203.391882 
L 185.470334 203.98781 
L 186.085793 204.59358 
" clip-path="url(#p8448bad7fa)" style="fill: none; stroke: #008000; stroke-opacity: 0.7; stroke-width: 2; stroke-linecap: square"/>
   </g>
   <g id="line2d_4">
    <path d="M -1 68.622897 
L 1.691709 66.364285 
L 4.51383 64.071553 
L 7.371972 61.823885 
L 10.265416 59.621847 
L 13.193433 57.465994 
L 16.155287 55.356868 
L 19.15023 53.295 
L 22.177511 51.280909 
L 25.236365 49.315102 
L 28.326024 47.398075 
L 31.44571 45.530309 
L 34.594637 43.712275 
L 37.772012 41.944431 
L 40.977037 40.227222 
L 44.208902 38.561079 
L 47.466796 36.946423 
L 50.749898 35.38366 
L 54.057382 33.873182 
L 57.388414 32.415372 
L 60.742156 31.010595 
L 64.117765 29.659205 
L 67.51439 28.361543 
L 70.931176 27.117934 
L 74.367263 25.928693 
L 77.821785 24.794118 
L 81.293874 23.714496 
L 84.782656 22.690097 
L 88.287251 21.72118 
L 91.806778 20.807989 
L 95.34035 19.950754 
L 98.887079 19.14969 
L 102.446071 18.404999 
L 106.01643 17.716869 
L 109.597258 17.085472 
L 113.187652 16.510968 
L 116.78671 15.993502 
L 120.393525 15.533203 
L 124.007189 15.130188 
L 127.626792 14.784558 
L 131.251423 14.4964 
L 134.88017 14.265786 
L 138.512119 14.092775 
L 142.146356 13.97741 
L 145.781966 13.91972 
L 149.418034 13.91972 
L 153.053644 13.97741 
L 156.687881 14.092775 
L 160.31983 14.265786 
L 163.948577 14.4964 
L 167.573208 14.784558 
L 171.192811 15.130188 
L 174.806475 15.533203 
L 178.41329 15.993502 
L 182.012348 16.510968 
L 185.602742 17.085472 
L 189.18357 17.716869 
L 192.753929 18.404999 
L 196.312921 19.14969 
L 199.85965 19.950754 
L 203.393222 20.807989 
L 206.912749 21.72118 
L 210.417344 22.690097 
L 213.906126 23.714496 
L 217.378215 24.794118 
L 220.832737 25.928693 
L 224.268824 27.117934 
L 227.68561 28.361543 
L 231.082235 29.659205 
L 234.457844 31.010595 
L 237.811586 32.415372 
L 241.142618 33.873182 
L 244.450102 35.38366 
L 247.733204 36.946423 
L 250.991098 38.561079 
L 254.222963 40.227222 
L 257.427988 41.944431 
L 260.605363 43.712275 
L 263.75429 45.530309 
L 266.873976 47.398075 
L 269.963635 49.315102 
L 273.022489 51.280909 
L 276.04977 53.295 
L 279.044713 55.356868 
L 282.006567 57.465994 
L 284.934584 59.621847 
L 287.828028 61.823885 
L 290.68617 64.071553 
L 293.508291 66.364285 
L 296.2 68.622897 
" clip-path="url(#p8448bad7fa)" style="fill: none; stroke: #8b4513; stroke-opacity: 0.7; stroke-width: 3; stroke-linecap: square"/>
   </g>
   <g id="line2d_5">
    <path d="M 147.6 243.079373 
L 184.060448 206.618925 
L 147.6 170.158477 
L 111.139552 206.618925 
L 147.6 243.079373 
" clip-path="url(#p8448bad7fa)" style="fill: none; stroke: #000000; stroke-width: 1.5; stroke-linecap: square"/>
   </g>
   <g id="PathCollection_1">
    <defs>
     <path id="m192a8af16d" d="M 0 -6.123724 
L -5.824008 -1.892335 
L -3.599435 4.954197 
L 3.599435 4.954197 
L 5.824008 -1.892335 
z
" style="stroke: #000000"/>
    </defs>
    <g clip-path="url(#p8448bad7fa)">
     <use xlink:href="#m192a8af16d" x="147.6" y="243.079373" style="fill: #ffffff; stroke: #000000"/>
    </g>
   </g>
   <g id="PathCollection_2">
    <defs>
     <path id="me32cd52f53" d="M -5 5 
L 5 5 
L 5 -5 
L -5 -5 
z
" style="stroke: #000000"/>
    </defs>
    <g clip-path="url(#p8448bad7fa)">
     <use xlink:href="#me32cd52f53" x="184.060448" y="206.618925" style="fill: #ffffff; stroke: #000000"/>
     <use xlink:href="#me32cd52f53" x="147.6" y="170.158477" style="fill: #ffffff; stroke: #000000"/>
     <use xlink:href="#me32cd52f53" x="111.139552" y="206.618925" style="fill: #ffffff; stroke: #000000"/>
    </g>
   </g>
   <g id="PathCollection_3">
    <defs>
     <path id="mc5c8f88b62" d="M 0 4.472136 
C 1.186024 4.472136 2.323632 4.000923 3.162278 3.162278 
C 4.000923 2.323632 4.472136 1.186024 4.472136 0 
C 4.472136 -1.186024 4.000923 -2.323632 3.162278 -3.162278 
C 2.323632 -4.000923 1.186024 -4.472136 0 -4.472136 
C -1.186024 -4.472136 -2.323632 -4.000923 -3.162278 -3.162278 
C -4.000923 -2.323632 -4.472136 -1.186024 -4.472136 0 
C -4.472136 1.186024 -4.000923 2.323632 -3.162278 3.162278 
C -2.323632 4.000923 -1.186024 4.472136 0 4.472136 
z
" style="stroke: #a52a2a"/>
    </defs>
    <g clip-path="url(#p8448bad7fa)">
     <use xlink:href="#mc5c8f88b62" x="147.6" y="208.417885" style="fill: #a52a2a; stroke: #a52a2a"/>
    </g>
   </g>
  </g>
 </g>
 <defs>
  <clipPath id="p8448bad7fa">
   <rect x="3.6" y="3.6" width="288" height="249.791882"/>
  </clipPath>
 </defs>
</svg>
